<svg xmlns="http://www.w3.org/2000/svg" xmlns:xlink="http://www.w3.org/1999/xlink" width="2000" zoomAndPan="magnify" viewBox="0 0 1500 1499.999933" height="2000" preserveAspectRatio="xMidYMid meet" version="1.0"><defs><g/><clipPath id="09513e0a07"><path d="M 201 176 L 512.269531 176 L 512.269531 589.988281 L 201 589.988281 Z M 201 176 " clip-rule="nonzero"/></clipPath><clipPath id="b16df91f97"><path d="M 191 0.480469 L 317 0.480469 L 317 109 L 191 109 Z M 191 0.480469 " clip-rule="nonzero"/></clipPath><clipPath id="b94d691ad9"><path d="M 398 0.480469 L 524 0.480469 L 524 109 L 398 109 Z M 398 0.480469 " clip-rule="nonzero"/></clipPath><clipPath id="b924fe376b"><path d="M 396 108 L 715.359375 108 L 715.359375 321 L 396 321 Z M 396 108 " clip-rule="nonzero"/></clipPath><clipPath id="6b179be5ad"><path d="M 22 588 L 692 588 L 692 770.398438 L 22 770.398438 Z M 22 588 " clip-rule="nonzero"/></clipPath><clipPath id="fb24ea69f0"><rect x="0" width="670" y="0" height="183"/></clipPath><clipPath id="cecd742e2d"><rect x="0" width="717" y="0" height="771"/></clipPath></defs><rect x="-150" width="1800" fill="#ffffff" y="-149.999993" height="1799.99992" fill-opacity="1"/><rect x="-150" width="1800" fill="#fffef0" y="-149.999993" height="1799.99992" fill-opacity="1"/><g transform="matrix(1, 0, 0, 1, 391, 366)"><g clip-path="url(#cecd742e2d)"><path fill="#050606" d="M 460.546875 189.988281 C 460.597656 139.789062 415.117188 82.648438 358.949219 82.589844 C 302.773438 82.527344 257.179688 139.574219 257.128906 189.773438 C 257.078125 239.980469 302.652344 198.769531 358.824219 198.824219 C 415 198.882812 460.488281 240.195312 460.546875 189.988281 " fill-opacity="1" fill-rule="nonzero"/><path fill="#050606" d="M 415.679688 202.316406 C 426.65625 205.449219 436.132812 208.152344 442.867188 208.160156 C 447.714844 208.164062 453.746094 208.167969 453.761719 189.984375 C 453.8125 144.421875 411.527344 89.351562 358.9375 89.292969 C 306.355469 89.238281 263.953125 144.222656 263.910156 189.785156 C 263.886719 207.972656 269.921875 207.976562 274.765625 207.984375 C 281.5 207.988281 290.980469 205.300781 301.964844 202.195312 C 317.847656 197.695312 337.617188 192.101562 358.832031 192.121094 C 380.042969 192.140625 399.800781 197.785156 415.679688 202.316406 Z M 250.34375 189.769531 C 250.402344 137.050781 297.855469 75.820312 358.953125 75.882812 C 420.050781 75.949219 467.378906 137.277344 467.328125 189.996094 C 467.304688 210.964844 459.070312 221.585938 442.855469 221.570312 C 434.207031 221.5625 423.878906 218.613281 411.917969 215.199219 C 396.078125 210.679688 378.117188 205.550781 358.820312 205.535156 C 339.519531 205.511719 321.546875 210.601562 305.699219 215.085938 C 293.730469 218.476562 283.394531 221.40625 274.746094 221.394531 C 258.53125 221.378906 250.324219 210.738281 250.34375 189.769531 " fill-opacity="1" fill-rule="nonzero"/><path fill="#9fc2ff" d="M 357.34375 177.476562 C 439.3125 177.5625 505.699219 238.402344 505.59375 339.382812 C 505.496094 432.539062 457.910156 509.371094 384.792969 520.660156 C 378.644531 521.613281 333.652344 521.425781 326.730469 520.199219 C 254.820312 507.441406 208.65625 431.1875 208.753906 339.078125 C 208.859375 238.09375 275.371094 177.386719 357.34375 177.476562 " fill-opacity="1" fill-rule="nonzero"/><g clip-path="url(#09513e0a07)"><path fill="#050606" d="M 215.171875 345.300781 C 215.078125 436.25 261.289062 507.980469 327.554688 519.734375 C 338.101562 521.605469 377.289062 521.121094 383.398438 520.175781 C 451.042969 509.734375 498.359375 437.941406 498.453125 345.59375 C 498.546875 254.347656 440.367188 190.5625 356.976562 190.476562 C 273.582031 190.386719 215.269531 254.054688 215.171875 345.300781 Z M 328.257812 535.777344 C 326.425781 534 324.054688 532.90625 321.554688 532.394531 C 286.375 525.097656 256.398438 503.328125 234.664062 469.253906 C 213.300781 435.757812 201.5625 391.734375 201.609375 345.28125 C 201.664062 295.257812 217.394531 252.585938 247.117188 221.875 C 275.214844 192.835938 314.234375 176.867188 356.988281 176.914062 C 399.738281 176.957031 438.726562 193.011719 466.765625 222.109375 C 496.417969 252.878906 512.0625 295.585938 512.011719 345.609375 C 511.910156 441.472656 463.300781 516.886719 392.867188 532.207031 C 389.273438 532.988281 386.15625 535.179688 384.195312 538.285156 C 372.226562 557.203125 369.796875 593.449219 359.746094 589.96875 C 345.695312 585.109375 343.734375 550.765625 328.257812 535.777344 " fill-opacity="1" fill-rule="nonzero"/></g><path fill="#050606" d="M 240.480469 456.03125 C 371.621094 396.636719 475.261719 451.488281 476.296875 452.046875 L 503.574219 394.4375 C 498.339844 391.597656 373.660156 325.582031 217.027344 396.523438 L 240.480469 456.03125 " fill-opacity="1" fill-rule="nonzero"/><path fill="#050606" d="M 204.234375 338.34375 C 335.378906 278.105469 504.570312 331.507812 505.597656 332.082031 L 489.09375 267.585938 C 483.859375 264.695312 383.554688 188.785156 226.917969 260.730469 L 204.234375 338.34375 " fill-opacity="1" fill-rule="nonzero"/><g clip-path="url(#b16df91f97)"><path fill="#050606" d="M 303.375 108.597656 L 316.773438 107.066406 C 316.558594 106.058594 311.402344 82.085938 301.011719 57.097656 C 286.210938 21.527344 269.160156 3.105469 248.863281 0.78125 C 229.386719 -1.449219 210.511719 11.28125 191.148438 39.699219 L 203.285156 44.15625 C 219.207031 20.777344 234.21875 9.179688 246.78125 10.613281 C 273.453125 13.667969 295.648438 72.335938 303.375 108.597656 " fill-opacity="1" fill-rule="nonzero"/></g><path fill="#050606" d="M 191.003906 26.636719 C 185.832031 41.101562 191.75 54.777344 204.226562 57.1875 C 216.707031 59.589844 231.011719 49.816406 236.1875 35.351562 C 241.355469 20.882812 235.441406 7.207031 222.960938 4.804688 C 210.484375 2.394531 196.171875 12.167969 191.003906 26.636719 " fill-opacity="1" fill-rule="nonzero"/><g clip-path="url(#b94d691ad9)"><path fill="#050606" d="M 411.445312 108.710938 L 398.050781 107.152344 C 398.273438 106.144531 403.476562 82.183594 413.925781 57.214844 C 428.796875 21.675781 445.890625 3.292969 466.183594 1.011719 C 485.664062 -1.179688 504.519531 11.589844 523.820312 40.042969 L 511.679688 44.472656 C 495.800781 21.066406 480.8125 9.441406 468.253906 10.84375 C 441.574219 13.84375 419.253906 72.460938 411.445312 108.710938 " fill-opacity="1" fill-rule="nonzero"/></g><path fill="#050606" d="M 523.992188 26.980469 C 529.136719 41.457031 523.183594 55.121094 510.707031 57.503906 C 498.222656 59.886719 483.933594 50.082031 478.792969 35.609375 C 473.652344 21.128906 479.601562 7.460938 492.078125 5.085938 C 504.5625 2.699219 518.851562 12.507812 523.992188 26.980469 " fill-opacity="1" fill-rule="nonzero"/><path fill="#ffffff" d="M 402.683594 302.691406 C 402.683594 302.691406 525.355469 218.550781 598.761719 273.394531 C 672.152344 328.246094 654.390625 399.894531 589.53125 418.136719 C 524.660156 436.386719 402.683594 302.691406 402.683594 302.691406 " fill-opacity="1" fill-rule="nonzero"/><path fill="#050606" d="M 412.277344 303.929688 C 434.484375 327.089844 521.023438 413.460938 576.390625 413.523438 C 580.546875 413.527344 584.449219 413.019531 588.007812 412.023438 C 616.375 404.042969 635.714844 384.972656 639.746094 361.019531 C 644.425781 333.210938 628.238281 303.160156 595.332031 278.574219 C 579.902344 267.042969 560.742188 261.183594 538.390625 261.160156 C 486.359375 261.101562 430.765625 292.507812 412.277344 303.929688 Z M 398.414062 307.097656 L 393.359375 301.550781 L 399.460938 297.367188 C 402.375 295.371094 471.582031 248.425781 538.402344 248.5 C 563.25 248.523438 584.703125 255.15625 602.183594 268.214844 C 639.03125 295.753906 656.996094 330.390625 651.46875 363.246094 C 646.597656 392.179688 624.011719 414.988281 591.046875 424.257812 C 586.496094 425.542969 581.558594 426.1875 576.378906 426.179688 C 576.371094 426.179688 576.378906 426.179688 576.378906 426.179688 C 507.777344 426.109375 402.84375 311.953125 398.414062 307.097656 " fill-opacity="1" fill-rule="nonzero"/><path fill="#ffffff" d="M 404.347656 300.160156 C 404.347656 300.160156 475.386719 114.453125 591.242188 114.542969 C 707.105469 114.640625 738.285156 204.398438 682.421875 274.847656 C 626.558594 345.304688 404.347656 300.160156 404.347656 300.160156 " fill-opacity="1" fill-rule="nonzero"/><g clip-path="url(#b924fe376b)"><path fill="#050606" d="M 459.277344 210.875 C 435.175781 245.523438 419.113281 280.589844 412.828125 295.332031 C 432.527344 298.871094 488.75 308.011719 545.234375 308.074219 C 545.238281 308.074219 545.246094 308.074219 545.246094 308.074219 C 612.601562 308.140625 658.464844 295.238281 677.871094 270.769531 C 702.75 239.398438 710 203.25 697.269531 174.078125 C 682.539062 140.320312 643.910156 120.929688 591.238281 120.875 C 533.949219 120.835938 487.855469 169.789062 459.277344 210.875 Z M 403.226562 306.378906 L 396.09375 304.933594 L 398.832031 297.773438 C 399.570312 295.851562 417.246094 250.078125 449.558594 203.558594 C 492.917969 141.144531 541.914062 108.175781 591.3125 108.214844 C 648.746094 108.277344 691.304688 130.34375 708.066406 168.75 C 722.796875 202.503906 714.910156 243.691406 686.96875 278.933594 C 664.914062 306.746094 617.230469 320.808594 545.234375 320.734375 C 545.226562 320.734375 545.234375 320.734375 545.222656 320.734375 C 474.324219 320.660156 403.929688 306.523438 403.226562 306.378906 " fill-opacity="1" fill-rule="nonzero"/></g><path fill="#ffffff" d="M 315.21875 302.691406 C 315.21875 302.691406 192.546875 218.550781 119.148438 273.394531 C 45.75 328.246094 63.511719 399.894531 128.378906 418.136719 C 193.25 436.386719 315.21875 302.691406 315.21875 302.691406 " fill-opacity="1" fill-rule="nonzero"/><path fill="#050606" d="M 179.519531 261.160156 C 157.167969 261.183594 138.003906 267.042969 122.570312 278.574219 C 89.667969 303.160156 73.480469 333.210938 78.15625 361.019531 C 82.191406 384.972656 101.527344 404.042969 129.902344 412.023438 C 133.453125 413.019531 137.363281 413.527344 141.515625 413.523438 C 196.886719 413.460938 283.417969 327.089844 305.625 303.929688 C 287.140625 292.507812 231.546875 261.101562 179.519531 261.160156 Z M 141.53125 426.179688 C 141.527344 426.179688 141.53125 426.179688 141.527344 426.179688 C 136.34375 426.1875 131.40625 425.542969 126.859375 424.257812 C 93.894531 414.988281 71.308594 392.179688 66.441406 363.246094 C 60.910156 330.390625 78.878906 295.753906 115.722656 268.214844 C 133.199219 255.15625 154.65625 248.523438 179.503906 248.5 C 246.324219 248.425781 315.53125 295.371094 318.445312 297.367188 L 324.546875 301.550781 L 319.496094 307.097656 C 315.0625 311.953125 210.128906 426.109375 141.53125 426.179688 " fill-opacity="1" fill-rule="nonzero"/><path fill="#ffffff" d="M 313.5625 300.160156 C 313.5625 300.160156 242.515625 114.453125 126.660156 114.542969 C 10.800781 114.640625 -20.378906 204.398438 35.484375 274.847656 C 91.351562 345.304688 313.5625 300.160156 313.5625 300.160156 " fill-opacity="1" fill-rule="nonzero"/><path fill="#050606" d="M 126.667969 120.875 C 73.992188 120.929688 35.367188 140.320312 20.636719 174.078125 C 7.910156 203.25 15.15625 239.398438 40.03125 270.769531 C 59.4375 295.238281 105.300781 308.140625 172.660156 308.074219 C 172.660156 308.074219 172.664062 308.074219 172.671875 308.074219 C 229.15625 308.011719 285.382812 298.871094 305.078125 295.332031 C 298.792969 280.589844 282.726562 245.523438 258.625 210.875 C 230.050781 169.789062 183.960938 120.835938 126.667969 120.875 Z M 172.683594 320.734375 C 172.675781 320.734375 172.675781 320.734375 172.671875 320.734375 C 100.675781 320.808594 52.992188 306.746094 30.9375 278.933594 C 2.992188 243.691406 -4.890625 202.503906 9.835938 168.75 C 26.597656 130.34375 69.15625 108.277344 126.597656 108.214844 C 175.992188 108.175781 224.988281 141.144531 268.34375 203.558594 C 300.660156 250.078125 318.335938 295.851562 319.078125 297.773438 L 321.808594 304.933594 L 314.683594 306.378906 C 313.976562 306.523438 243.578125 320.660156 172.683594 320.734375 " fill-opacity="1" fill-rule="nonzero"/><g clip-path="url(#6b179be5ad)"><g transform="matrix(1, 0, 0, 1, 22, 588)"><g clip-path="url(#fb24ea69f0)"><g fill="#000000" fill-opacity="1"><g transform="translate(1.140756, 145.981362)"><g><path d="M 9.4375 0 L 9.4375 -109.046875 L 31.84375 -109.046875 L 31.84375 -65.0625 L 79.109375 -65.0625 L 79.109375 -109.046875 L 101.515625 -109.046875 L 101.515625 0 L 79.109375 0 L 79.109375 -46.328125 L 31.84375 -46.328125 L 31.84375 0 Z M 9.4375 0 "/></g></g></g><g fill="#000000" fill-opacity="1"><g transform="translate(108.796417, 145.981362)"><g><path d="M 9 0 L 9 -80.796875 L 30.8125 -80.796875 L 30.8125 0 Z M 19.90625 -91.265625 C 16.53125 -91.265625 13.660156 -92.363281 11.296875 -94.5625 C 8.929688 -96.757812 7.75 -99.441406 7.75 -102.609375 C 7.75 -105.785156 8.929688 -108.46875 11.296875 -110.65625 C 13.660156 -112.851562 16.53125 -113.953125 19.90625 -113.953125 C 23.269531 -113.953125 26.125 -112.851562 28.46875 -110.65625 C 30.8125 -108.46875 31.984375 -105.785156 31.984375 -102.609375 C 31.984375 -99.441406 30.8125 -96.757812 28.46875 -94.5625 C 26.125 -92.363281 23.269531 -91.265625 19.90625 -91.265625 Z M 19.90625 -91.265625 "/></g></g></g><g fill="#000000" fill-opacity="1"><g transform="translate(145.313141, 145.981362)"><g><path d="M 31.765625 0 L 1.96875 -80.796875 L 25.109375 -80.796875 L 38.640625 -39.296875 C 40.296875 -34.179688 41.757812 -29.007812 43.03125 -23.78125 C 44.300781 -18.5625 45.570312 -13.171875 46.84375 -7.609375 L 42.078125 -7.609375 C 43.347656 -13.171875 44.601562 -18.550781 45.84375 -23.75 C 47.09375 -28.945312 48.523438 -34.128906 50.140625 -39.296875 L 63.453125 -80.796875 L 86.359375 -80.796875 L 56.578125 0 Z M 31.765625 0 "/></g></g></g><g fill="#000000" fill-opacity="1"><g transform="translate(230.353647, 145.981362)"><g><path d="M 45.59375 1.609375 C 37.351562 1.609375 30.242188 -0.0976562 24.265625 -3.515625 C 18.285156 -6.929688 13.671875 -11.757812 10.421875 -18 C 7.179688 -24.25 5.5625 -31.59375 5.5625 -40.03125 C 5.5625 -48.375 7.171875 -55.679688 10.390625 -61.953125 C 13.609375 -68.222656 18.144531 -73.125 24 -76.65625 C 29.851562 -80.195312 36.710938 -81.96875 44.578125 -81.96875 C 49.992188 -81.96875 55.019531 -81.085938 59.65625 -79.328125 C 64.289062 -77.578125 68.347656 -74.976562 71.828125 -71.53125 C 75.316406 -68.09375 78.023438 -63.800781 79.953125 -58.65625 C 81.878906 -53.507812 82.84375 -47.570312 82.84375 -40.84375 L 82.84375 -34.765625 L 14.265625 -34.765625 L 14.265625 -48.53125 L 72.234375 -48.53125 L 62.0625 -44.9375 C 62.0625 -49.132812 61.398438 -52.769531 60.078125 -55.84375 C 58.765625 -58.914062 56.828125 -61.289062 54.265625 -62.96875 C 51.703125 -64.65625 48.546875 -65.5 44.796875 -65.5 C 41.035156 -65.5 37.835938 -64.644531 35.203125 -62.9375 C 32.566406 -61.226562 30.550781 -58.882812 29.15625 -55.90625 C 27.769531 -52.9375 27.078125 -49.523438 27.078125 -45.671875 L 27.078125 -36.015625 C 27.078125 -31.472656 27.859375 -27.613281 29.421875 -24.4375 C 30.984375 -21.269531 33.191406 -18.867188 36.046875 -17.234375 C 38.898438 -15.597656 42.226562 -14.78125 46.03125 -14.78125 C 48.625 -14.78125 50.976562 -15.15625 53.09375 -15.90625 C 55.21875 -16.664062 57.023438 -17.765625 58.515625 -19.203125 C 60.003906 -20.648438 61.140625 -22.421875 61.921875 -24.515625 L 81.75 -21.65625 C 80.476562 -16.976562 78.195312 -12.894531 74.90625 -9.40625 C 71.613281 -5.914062 67.488281 -3.207031 62.53125 -1.28125 C 57.582031 0.644531 51.9375 1.609375 45.59375 1.609375 Z M 45.59375 1.609375 "/></g></g></g><g fill="#3e69b5" fill-opacity="1"><g transform="translate(315.180244, 145.981362)"><g><path d="M 9.4375 0 L 9.4375 -109.046875 L 43.46875 -109.046875 L 61.1875 -58.84375 C 61.914062 -56.5 62.769531 -53.507812 63.75 -49.875 C 64.726562 -46.238281 65.71875 -42.347656 66.71875 -38.203125 C 67.71875 -34.054688 68.644531 -30.039062 69.5 -26.15625 C 70.351562 -22.28125 71.070312 -18.925781 71.65625 -16.09375 L 66.96875 -16.09375 C 67.550781 -18.875 68.269531 -22.191406 69.125 -26.046875 C 69.976562 -29.910156 70.90625 -33.925781 71.90625 -38.09375 C 72.90625 -42.269531 73.878906 -46.1875 74.828125 -49.84375 C 75.785156 -53.5 76.65625 -56.5 77.4375 -58.84375 L 94.859375 -109.046875 L 128.953125 -109.046875 L 128.953125 0 L 106.5625 0 L 106.5625 -51.53125 C 106.5625 -53.914062 106.597656 -56.863281 106.671875 -60.375 C 106.742188 -63.894531 106.835938 -67.675781 106.953125 -71.71875 C 107.078125 -75.769531 107.1875 -79.859375 107.28125 -83.984375 C 107.382812 -88.109375 107.460938 -92 107.515625 -95.65625 L 109.203125 -95.65625 C 108.222656 -91.65625 107.160156 -87.53125 106.015625 -83.28125 C 104.867188 -79.039062 103.722656 -74.90625 102.578125 -70.875 C 101.429688 -66.851562 100.359375 -63.171875 99.359375 -59.828125 C 98.359375 -56.484375 97.488281 -53.71875 96.75 -51.53125 L 78.609375 0 L 59.875 0 L 41.5 -51.53125 C 40.71875 -53.71875 39.828125 -56.46875 38.828125 -59.78125 C 37.828125 -63.101562 36.738281 -66.765625 35.5625 -70.765625 C 34.394531 -74.773438 33.222656 -78.898438 32.046875 -83.140625 C 30.878906 -87.390625 29.757812 -91.5625 28.6875 -95.65625 L 30.734375 -95.65625 C 30.785156 -92.144531 30.859375 -88.335938 30.953125 -84.234375 C 31.054688 -80.140625 31.15625 -76.039062 31.25 -71.9375 C 31.34375 -67.84375 31.4375 -64.023438 31.53125 -60.484375 C 31.632812 -56.953125 31.6875 -53.96875 31.6875 -51.53125 L 31.6875 0 Z M 9.4375 0 "/></g></g></g><g fill="#3e69b5" fill-opacity="1"><g transform="translate(450.281481, 145.981362)"><g><path d="M 31.984375 1.53125 C 26.804688 1.53125 22.171875 0.628906 18.078125 -1.171875 C 13.984375 -2.972656 10.765625 -5.664062 8.421875 -9.25 C 6.078125 -12.84375 4.90625 -17.296875 4.90625 -22.609375 C 4.90625 -27.148438 5.734375 -30.929688 7.390625 -33.953125 C 9.046875 -36.984375 11.3125 -39.425781 14.1875 -41.28125 C 17.070312 -43.132812 20.351562 -44.535156 24.03125 -45.484375 C 27.71875 -46.429688 31.585938 -47.101562 35.640625 -47.5 C 40.378906 -47.988281 44.1875 -48.4375 47.0625 -48.84375 C 49.9375 -49.257812 52.03125 -49.90625 53.34375 -50.78125 C 54.664062 -51.664062 55.328125 -52.988281 55.328125 -54.75 L 55.328125 -55.109375 C 55.328125 -57.359375 54.828125 -59.273438 53.828125 -60.859375 C 52.828125 -62.441406 51.375 -63.660156 49.46875 -64.515625 C 47.570312 -65.367188 45.253906 -65.796875 42.515625 -65.796875 C 39.734375 -65.796875 37.304688 -65.367188 35.234375 -64.515625 C 33.160156 -63.660156 31.476562 -62.515625 30.1875 -61.078125 C 28.894531 -59.640625 27.984375 -58.015625 27.453125 -56.203125 L 7.3125 -58.765625 C 8.4375 -63.648438 10.582031 -67.820312 13.75 -71.28125 C 16.925781 -74.75 20.976562 -77.394531 25.90625 -79.21875 C 30.832031 -81.050781 36.445312 -81.96875 42.75 -81.96875 C 47.332031 -81.96875 51.679688 -81.429688 55.796875 -80.359375 C 59.921875 -79.285156 63.59375 -77.625 66.8125 -75.375 C 70.039062 -73.132812 72.566406 -70.296875 74.390625 -66.859375 C 76.222656 -63.421875 77.140625 -59.3125 77.140625 -54.53125 L 77.140625 0 L 56.28125 0 L 56.28125 -11.265625 L 55.625 -11.265625 C 54.300781 -8.734375 52.554688 -6.503906 50.390625 -4.578125 C 48.222656 -2.648438 45.625 -1.148438 42.59375 -0.078125 C 39.570312 0.992188 36.035156 1.53125 31.984375 1.53125 Z M 38.125 -13.765625 C 41.59375 -13.765625 44.617188 -14.445312 47.203125 -15.8125 C 49.785156 -17.175781 51.8125 -19.003906 53.28125 -21.296875 C 54.75 -23.585938 55.484375 -26.175781 55.484375 -29.0625 L 55.484375 -37.625 C 54.796875 -37.226562 53.84375 -36.832031 52.625 -36.4375 C 51.40625 -36.050781 50.015625 -35.710938 48.453125 -35.421875 C 46.890625 -35.128906 45.316406 -34.859375 43.734375 -34.609375 C 42.148438 -34.367188 40.695312 -34.148438 39.375 -33.953125 C 36.738281 -33.566406 34.394531 -32.945312 32.34375 -32.09375 C 30.300781 -31.238281 28.71875 -30.09375 27.59375 -28.65625 C 26.46875 -27.21875 25.90625 -25.425781 25.90625 -23.28125 C 25.90625 -21.226562 26.429688 -19.492188 27.484375 -18.078125 C 28.535156 -16.660156 29.972656 -15.585938 31.796875 -14.859375 C 33.628906 -14.128906 35.738281 -13.765625 38.125 -13.765625 Z M 38.125 -13.765625 "/></g></g></g><g fill="#3e69b5" fill-opacity="1"><g transform="translate(533.053161, 145.981362)"><g><path d="M 50.421875 -80.796875 L 50.421875 -64.046875 L 1.390625 -64.046875 L 1.390625 -80.796875 Z M 13.171875 -100.640625 L 34.984375 -100.640625 L 34.984375 -23.9375 C 34.984375 -21.34375 35.554688 -19.445312 36.703125 -18.25 C 37.847656 -17.0625 39.765625 -16.46875 42.453125 -16.46875 C 43.421875 -16.46875 44.675781 -16.550781 46.21875 -16.71875 C 47.757812 -16.894531 48.941406 -17.054688 49.765625 -17.203125 L 52.1875 -0.578125 C 49.988281 -0.046875 47.691406 0.328125 45.296875 0.546875 C 42.910156 0.765625 40.59375 0.875 38.34375 0.875 C 30.050781 0.875 23.78125 -1.035156 19.53125 -4.859375 C 15.289062 -8.691406 13.171875 -14.289062 13.171875 -21.65625 Z M 13.171875 -100.640625 "/></g></g></g><g fill="#3e69b5" fill-opacity="1"><g transform="translate(584.719844, 145.981362)"><g><path d="M 45.59375 1.609375 C 37.351562 1.609375 30.242188 -0.0976562 24.265625 -3.515625 C 18.285156 -6.929688 13.671875 -11.757812 10.421875 -18 C 7.179688 -24.25 5.5625 -31.59375 5.5625 -40.03125 C 5.5625 -48.375 7.171875 -55.679688 10.390625 -61.953125 C 13.609375 -68.222656 18.144531 -73.125 24 -76.65625 C 29.851562 -80.195312 36.710938 -81.96875 44.578125 -81.96875 C 49.992188 -81.96875 55.019531 -81.085938 59.65625 -79.328125 C 64.289062 -77.578125 68.347656 -74.976562 71.828125 -71.53125 C 75.316406 -68.09375 78.023438 -63.800781 79.953125 -58.65625 C 81.878906 -53.507812 82.84375 -47.570312 82.84375 -40.84375 L 82.84375 -34.765625 L 14.265625 -34.765625 L 14.265625 -48.53125 L 72.234375 -48.53125 L 62.0625 -44.9375 C 62.0625 -49.132812 61.398438 -52.769531 60.078125 -55.84375 C 58.765625 -58.914062 56.828125 -61.289062 54.265625 -62.96875 C 51.703125 -64.65625 48.546875 -65.5 44.796875 -65.5 C 41.035156 -65.5 37.835938 -64.644531 35.203125 -62.9375 C 32.566406 -61.226562 30.550781 -58.882812 29.15625 -55.90625 C 27.769531 -52.9375 27.078125 -49.523438 27.078125 -45.671875 L 27.078125 -36.015625 C 27.078125 -31.472656 27.859375 -27.613281 29.421875 -24.4375 C 30.984375 -21.269531 33.191406 -18.867188 36.046875 -17.234375 C 38.898438 -15.597656 42.226562 -14.78125 46.03125 -14.78125 C 48.625 -14.78125 50.976562 -15.15625 53.09375 -15.90625 C 55.21875 -16.664062 57.023438 -17.765625 58.515625 -19.203125 C 60.003906 -20.648438 61.140625 -22.421875 61.921875 -24.515625 L 81.75 -21.65625 C 80.476562 -16.976562 78.195312 -12.894531 74.90625 -9.40625 C 71.613281 -5.914062 67.488281 -3.207031 62.53125 -1.28125 C 57.582031 0.644531 51.9375 1.609375 45.59375 1.609375 Z M 45.59375 1.609375 "/></g></g></g></g></g></g></g></g></svg>